<svg height="512pt" viewBox="0 0 512 512" width="512pt" xmlns="http://www.w3.org/2000/svg" xmlns:xlink="http://www.w3.org/1999/xlink"><linearGradient id="a" gradientUnits="userSpaceOnUse" x1="256" x2="256" y1="0" y2="512"><stop offset="0" stop-color="#2af598"/><stop offset="1" stop-color="#009efd"/></linearGradient><path d="m427 127.570312v-127.570312h-342v127.570312l-85 63.394532v261.035156c0 33.085938 26.914062 60 60 60h392c33.085938 0 60-26.914062 60-60v-261.035156zm29.8125 72.136719-29.8125 22.175781v-44.410156zm-69.8125-159.707031v211.636719l-131 97.4375-131-97.4375v-211.636719zm-302 181.882812-29.8125-22.175781 29.8125-22.234375zm367 250.117188h-392c-11.027344 0-20-8.972656-20-20v-213.738281l216 160.664062 216-160.664062v213.738281c0 11.027344-8.972656 20-20 20zm-176-299h-40v-40h40zm72 0h-40v-40h40zm-145 0h-40v-40h40zm0 0" fill="url(#a)"/></svg>