<?xml version="1.0" encoding="UTF-8" standalone="no"?>
<svg
   xmlns:dc="http://purl.org/dc/elements/1.1/"
   xmlns:cc="http://creativecommons.org/ns#"
   xmlns:rdf="http://www.w3.org/1999/02/22-rdf-syntax-ns#"
   xmlns:svg="http://www.w3.org/2000/svg"
   xmlns="http://www.w3.org/2000/svg"
   xmlns:sodipodi="http://sodipodi.sourceforge.net/DTD/sodipodi-0.dtd"
   xmlns:inkscape="http://www.inkscape.org/namespaces/inkscape"
   version="1.0"
   width="300.000000pt"
   height="300.000000pt"
   viewBox="0 0 300.000000 300.000000"
   preserveAspectRatio="xMidYMid meet"
   id="svg3747"
   sodipodi:docname="zhihu-logo-material.svg"
   inkscape:version="0.92.4 (5da689c313, 2019-01-14)">
  <defs
     id="defs3751" />
  <sodipodi:namedview
     pagecolor="#ffffff"
     bordercolor="#666666"
     borderopacity="1"
     objecttolerance="10"
     gridtolerance="10"
     guidetolerance="10"
     inkscape:pageopacity="0"
     inkscape:pageshadow="2"
     inkscape:window-width="2736"
     inkscape:window-height="1699"
     id="namedview3749"
     showgrid="false"
     inkscape:zoom="1.74"
     inkscape:cx="203.15026"
     inkscape:cy="181.84505"
     inkscape:window-x="-13"
     inkscape:window-y="-13"
     inkscape:window-maximized="1"
     inkscape:current-layer="svg3747" />
  <metadata
     id="metadata3733">
Created by potrace 1.10, written by Peter Selinger 2001-2011
<rdf:RDF>
  <cc:Work
     rdf:about="">
    <dc:format>image/svg+xml</dc:format>
    <dc:type
       rdf:resource="http://purl.org/dc/dcmitype/StillImage" />
    <dc:title></dc:title>
  </cc:Work>
</rdf:RDF>
</metadata>
  <path
     style="stroke-width:0.58185804;fill:#2a7fff"
     d="m 5.4661517,285.38928 c 0,-0.21434 4.4154356,-4.71558 9.8120803,-10.00273 14.346628,-14.05557 27.220371,-29.9605 34.458808,-42.57231 9.512534,-16.57405 19.274468,-46.75672 19.562182,-60.48376 0.09401,-4.48131 0.0061,-4.8377 -1.709114,-6.95844 -3.010955,-3.72218 -3.532044,-3.79134 -30.595815,-4.061 -13.326478,-0.13278 -25.346582,-0.3794 -26.711342,-0.54804 -2.38353,-0.29454 -2.4813814,-0.38603 -2.4813814,-2.31993 0,-3.83466 4.5387724,-10.52298 8.0686294,-11.88989 2.020959,-0.7826 13.425058,-1.67 21.707948,-1.68918 9.63338,-0.0223 23.759075,-0.95218 27.265793,-1.79485 7.656545,-1.83988 8.308064,-3.36659 9.005692,-21.10297 0.545084,-13.85754 0.182731,-40.653382 -0.658621,-48.708308 -0.44292,-4.240288 -0.644828,-4.771248 -2.35305,-6.187583 -4.384855,-3.635663 -15.987019,-4.480082 -22.613576,-1.645863 -3.53495,1.511924 -5.664392,3.841113 -11.408381,12.478491 -4.317189,6.491864 -8.423263,11.481951 -11.143936,13.543155 -2.57287,1.949226 -13.080394,6.880887 -15.645156,7.342988 L 7.8733464,99.177064 8.9197309,95.784977 C 9.4952414,93.919334 11.419932,88.609252 13.196819,83.984799 14.973707,79.360357 19.511922,67.48754 23.28174,57.600786 34.257602,28.815417 36.928158,23.207496 42.010073,18.273041 44.981976,15.387373 57.590233,7.9886906 58.312847,8.7063723 c 0.154449,0.1533917 -1.2972,5.9985717 -3.22589,12.9892877 -5.342176,19.363245 -5.52834,21.875719 -1.877202,25.334964 3.205551,3.037082 2.341949,2.973013 45.089258,3.34503 41.999387,0.365511 42.982697,0.430963 45.372987,3.020204 1.03929,1.1258 4.8385,9.266945 4.8385,10.368196 0,0.212601 -9.52413,0.506291 -21.16472,0.652663 -23.23448,0.292136 -25.90143,0.628861 -29.102105,3.674359 -2.328092,2.215236 -3.247095,5.797128 -4.003428,15.603781 -0.72709,9.427643 -1.711899,34.098323 -1.825328,45.727203 l -0.07841,8.03575 2.793949,2.81725 c 3.650651,3.68107 4.737297,3.86821 24.479212,4.21548 18.44205,0.32442 20.93416,0.72279 24.08253,3.84967 2.61981,2.60191 5.23341,7.12441 5.50397,9.52385 0.16279,1.44365 -0.0614,1.75699 -1.56148,2.18235 -0.96336,0.27321 -10.15908,0.75837 -20.43491,1.07819 -22.80623,0.70977 -29.479684,1.27742 -31.992021,2.72127 -2.597342,1.4927 -5.474617,5.96686 -6.166849,9.58941 -6.876152,35.98457 -10.300024,46.9514 -22.312764,71.46908 -6.947227,14.17912 -13.6355,23.67364 -20.874435,29.6329 -4.372459,3.59951 -11.481209,7.25752 -16.74148,8.61483 -6.714937,1.73267 -23.6461052,3.33453 -23.6461052,2.23719 z"
     id="path3753"
     inkscape:connector-curvature="0" />
  <path
     style="stroke-width:0.55655527;fill:#2a7fff"
     d="m 129.02271,249.28058 c -2.32143,-2.36788 -9.96067,-11.4297 -16.97606,-20.13737 -7.01541,-8.70769 -14.479568,-17.78833 -16.587022,-20.1792 l -3.831748,-4.34705 3.39384,-3.81377 c 3.560704,-4.00125 6.98899,-7.21286 7.69951,-7.21286 0.74532,0 5.36207,5.08353 12.10812,13.33233 3.62313,4.43021 8.2565,9.9298 10.29637,12.2213 5.75029,6.45962 8.1519,9.71452 10.14739,13.75278 2.38219,4.82082 2.4429,8.84318 0.2389,15.82832 -0.84354,2.67342 -1.69904,4.86074 -1.9011,4.86074 -0.20208,0 -2.26676,-1.93735 -4.5882,-4.30522 z"
     id="path3755"
     inkscape:connector-curvature="0" />
  <path
     style="stroke-width:0.60237467;fill:#2a7fff"
     d="m 200.64896,279.56517 c -0.77985,-0.91865 -2.24525,-4.72634 -3.95839,-10.28542 -3.04999,-9.89708 -4.26775,-10.65008 -17.65348,-10.91578 l -9.86257,-0.19579 V 154.49574 50.823298 h 60.36084 c 56.87345,0 60.39053,0.05858 60.87438,1.014049 0.70793,1.397953 1.03118,134.668663 0.4203,173.282833 -0.41454,26.20437 -0.64634,31.54501 -1.38756,31.96892 -1.23861,0.70837 -8.98877,1.08991 -32.61435,1.60559 l -20.36508,0.44451 -4.05654,1.86561 c -2.23109,1.02609 -7.86069,4.50979 -12.51017,7.74156 -8.74245,6.07669 -17.34399,11.54312 -18.16334,11.54312 -0.25805,0 -0.74586,-0.32595 -1.08404,-0.72432 z m 14.54585,-17.44611 c 2.06365,-1.00152 9.61279,-5.40636 16.77589,-9.78852 l 13.02382,-7.96758 h 12.15071 c 11.78661,0 12.20102,-0.0399 13.83004,-1.3367 l 1.67936,-1.33672 0.5971,-26.04277 c 0.67773,-29.56015 0.20477,-140.341497 -0.619,-144.990739 -0.29782,-1.680766 -0.83026,-3.323191 -1.18324,-3.649828 -1.46467,-1.355333 -14.05687,-1.889006 -45.2912,-1.919486 -26.60624,-0.026 -32.7969,0.11754 -35.38004,0.820129 l -3.13097,0.851598 -0.37992,27.524358 c -0.58405,42.314718 -0.56845,130.340158 0.0247,138.843798 0.29138,4.17785 0.8511,8.1517 1.24383,8.83077 0.86324,1.49256 3.3379,2.74224 6.52651,3.29578 2.98918,0.51892 3.52733,1.30166 6.99473,10.1736 1.67026,4.27363 3.35955,7.61065 4.16547,8.22839 1.70767,1.30895 3.8744,0.93801 8.97227,-1.53608 z"
     id="path3757"
     inkscape:connector-curvature="0" />
</svg>
