<svg width="370" height="369" version="1.1" xmlns="http://www.w3.org/2000/svg"><path fill="rgb(126,126,126)" stroke="rgb(126,126,126)" stroke-width="1" opacity="1" d="M 80.5 3 L 85 3.5 L 73 36.5 L 69 54 L 182.5 54 L 186 56.5 Q 191.9 65.4 190 81 L 126 81 L 126 122.5 L 125 123.5 L 125 151.5 L 124 152.5 L 124 169.5 L 123 172.5 Q 124.3 175.3 125.5 173 L 129.5 174 L 177.5 174 L 185.5 173 L 187.5 174 L 189.5 174 L 193 175.5 L 197 185.5 L 198 202 L 121.5 202 L 121 202.5 L 121 209.5 L 120 210.5 L 120 217.5 L 117 233.5 L 112 252.5 L 113.5 252 L 128.5 240 L 130.5 240 L 176 291.5 L 179 297.5 L 181 306.5 L 181 323.5 L 178 340 L 174 337.5 L 111 260 Q 107.7 258.7 109 263.5 L 106 269.5 L 106 271.5 L 98 295.5 L 83 325 Q 80 323.8 81 327.5 Q 73.2 339.7 62.5 349 Q 52.4 356.9 37.5 360 L 32.5 361 L 10.5 361 L 3 358.5 L 33 331.5 Q 56.4 306.9 72 274.5 L 84 241.5 L 88 224.5 L 90 204.5 L 91 203.5 L 89.5 202 L 9 202 Q 10.8 184.5 21.5 175 L 26.5 173 L 91.5 173 L 93 173.5 L 94 169.5 L 94 135.5 L 95 134.5 L 95 81 L 59.5 81 L 58 82.5 Q 54.4 102.9 41.5 114 Q 29.3 125.7 8 127 L 29 77.5 L 45 29.5 Q 48.5 20 55.5 14 Q 65 5.5 80.5 3 Z "></path><path fill="rgb(126,126,126)" stroke="rgb(126,126,126)" stroke-width="1" opacity="1" d="M 215 49 L 366.5 49 L 368 50.5 L 368 319.5 L 367.5 320 L 306.5 320 L 254.5 353 L 253 351.5 L 245 321.5 L 243.5 320 L 215.5 320 L 215 319.5 L 215 49 Z M 246 78 L 246 292 L 247 292 L 261 292 L 266 312 L 268 313 L 303 291 L 336 291 L 337 292 L 337 78 L 246 78 Z "></path><path fill="rgb(168,168,168)" stroke="rgb(168,168,168)" stroke-width="1" opacity="1" d="M 57.5 12 L 56.5 14 L 57.5 12 Z "></path><path fill="rgb(168,168,168)" stroke="rgb(168,168,168)" stroke-width="1" opacity="1" d="M 46.5 108 L 45.5 110 L 46.5 108 Z "></path><path fill="rgb(168,168,168)" stroke="rgb(168,168,168)" stroke-width="1" opacity="1" d="M 40.5 114 L 39.5 116 L 40.5 114 Z "></path><path fill="rgb(168,168,168)" stroke="rgb(168,168,168)" stroke-width="1" opacity="1" d="M 94.5 123 L 95 134.5 L 94 134.5 L 94.5 123 Z "></path><path fill="rgb(168,168,168)" stroke="rgb(168,168,168)" stroke-width="1" opacity="1" d="M 125.5 123 L 126 131.5 L 125 131.5 L 125.5 123 Z "></path><path fill="rgb(168,168,168)" stroke="rgb(168,168,168)" stroke-width="1" opacity="1" d="M 124.5 152 L 125 155.5 L 124 155.5 L 124.5 152 Z "></path><path fill="rgb(168,168,168)" stroke="rgb(168,168,168)" stroke-width="1" opacity="1" d="M 93.5 163 L 94 169.5 L 93 169.5 L 93.5 163 Z "></path><path fill="rgb(168,168,168)" stroke="rgb(168,168,168)" stroke-width="1" opacity="1" d="M 177.5 173 L 184 173.5 L 177.5 174 L 177.5 173 Z "></path><path fill="rgb(168,168,168)" stroke="rgb(168,168,168)" stroke-width="1" opacity="1" d="M 9.5 202 L 89.5 202 L 91 203.5 L 89.5 203 L 9.5 203 L 9.5 202 Z "></path><path fill="rgb(168,168,168)" stroke="rgb(168,168,168)" stroke-width="1" opacity="1" d="M 121.5 202 L 198 202.5 L 121.5 203 L 121.5 202 Z "></path><path fill="rgb(168,168,168)" stroke="rgb(168,168,168)" stroke-width="1" opacity="1" d="M 138.5 248 L 139.5 250 L 138.5 248 Z "></path><path fill="rgb(168,168,168)" stroke="rgb(168,168,168)" stroke-width="1" opacity="1" d="M 115.5 250 L 114.5 252 L 115.5 250 Z "></path><path fill="rgb(168,168,168)" stroke="rgb(168,168,168)" stroke-width="1" opacity="1" d="M 145.5 256 L 147.5 259 L 145.5 256 Z "></path><path fill="rgb(168,168,168)" stroke="rgb(168,168,168)" stroke-width="1" opacity="1" d="M 109 260 L 111 260.5 L 109 261.5 L 109 260 Z "></path><path fill="rgb(168,168,168)" stroke="rgb(168,168,168)" stroke-width="1" opacity="1" d="M 114.5 265 L 115.5 267 L 114.5 265 Z "></path><path fill="rgb(168,168,168)" stroke="rgb(168,168,168)" stroke-width="1" opacity="1" d="M 153.5 265 L 154.5 267 L 153.5 265 Z "></path><path fill="rgb(168,168,168)" stroke="rgb(168,168,168)" stroke-width="1" opacity="1" d="M 119.5 271 L 120.5 273 L 119.5 271 Z "></path><path fill="rgb(168,168,168)" stroke="rgb(168,168,168)" stroke-width="1" opacity="1" d="M 165.5 279 L 166.5 281 L 165.5 279 Z "></path><path fill="rgb(168,168,168)" stroke="rgb(168,168,168)" stroke-width="1" opacity="1" d="M 171.5 286 L 172.5 288 L 171.5 286 Z "></path><path fill="rgb(168,168,168)" stroke="rgb(168,168,168)" stroke-width="1" opacity="1" d="M 134.5 289 L 135.5 291 L 134.5 289 Z "></path><path fill="rgb(168,168,168)" stroke="rgb(168,168,168)" stroke-width="1" opacity="1" d="M 246.5 291 L 261 291.5 L 246.5 292 L 246.5 291 Z "></path><path fill="rgb(168,168,168)" stroke="rgb(168,168,168)" stroke-width="1" opacity="1" d="M 138.5 294 L 139.5 296 L 138.5 294 Z "></path><path fill="rgb(168,168,168)" stroke="rgb(168,168,168)" stroke-width="1" opacity="1" d="M 180.5 303 L 181 305.5 L 180 305.5 L 180.5 303 Z "></path><path fill="rgb(168,168,168)" stroke="rgb(168,168,168)" stroke-width="1" opacity="1" d="M 148.5 306 L 149.5 308 L 148.5 306 Z "></path><path fill="rgb(168,168,168)" stroke="rgb(168,168,168)" stroke-width="1" opacity="1" d="M 51.5 308 L 50.5 310 L 51.5 308 Z "></path><path fill="rgb(168,168,168)" stroke="rgb(168,168,168)" stroke-width="1" opacity="1" d="M 153.5 312 L 154.5 314 L 153.5 312 Z "></path><path fill="rgb(168,168,168)" stroke="rgb(168,168,168)" stroke-width="1" opacity="1" d="M 45.5 316 L 44.5 318 L 45.5 316 Z "></path><path fill="rgb(168,168,168)" stroke="rgb(168,168,168)" stroke-width="1" opacity="1" d="M 158.5 318 L 159.5 320 L 158.5 318 Z "></path><path fill="rgb(168,168,168)" stroke="rgb(168,168,168)" stroke-width="1" opacity="1" d="M 215.5 320 L 243.5 320 L 245 321.5 L 243.5 321 L 215.5 321 L 215.5 320 Z "></path><path fill="rgb(168,168,168)" stroke="rgb(168,168,168)" stroke-width="1" opacity="1" d="M 306.5 320 L 368 320.5 L 306.5 321 L 306.5 320 Z "></path><path fill="rgb(168,168,168)" stroke="rgb(168,168,168)" stroke-width="1" opacity="1" d="M 40.5 322 L 39.5 324 L 40.5 322 Z "></path><path fill="rgb(168,168,168)" stroke="rgb(168,168,168)" stroke-width="1" opacity="1" d="M 163.5 324 L 164.5 326 L 163.5 324 Z "></path><path fill="rgb(168,168,168)" stroke="rgb(168,168,168)" stroke-width="1" opacity="1" d="M 168.5 330 L 169.5 332 L 168.5 330 Z "></path><path fill="rgb(168,168,168)" stroke="rgb(168,168,168)" stroke-width="1" opacity="1" d="M 32.5 331 L 22.5 342 L 32.5 331 Z "></path><path fill="rgb(168,168,168)" stroke="rgb(168,168,168)" stroke-width="1" opacity="1" d="M 73.5 337 L 72.5 339 L 73.5 337 Z "></path><path fill="rgb(168,168,168)" stroke="rgb(168,168,168)" stroke-width="1" opacity="1" d="M 67.5 344 L 65.5 347 L 67.5 344 Z "></path><path fill="rgb(168,168,168)" stroke="rgb(168,168,168)" stroke-width="1" opacity="1" d="M 2.5 358 L 5 359.5 L 3.5 360 L 2.5 358 Z "></path><path fill="rgb(168,168,168)" stroke="rgb(168,168,168)" stroke-width="1" opacity="1" d="M 16.5 361 L 27 361.5 L 16.5 362 L 16.5 361 Z "></path><path fill="rgb(210,210,210)" stroke="rgb(210,210,210)" stroke-width="1" opacity="1" d="M 69.5 53 L 181 53.5 L 69.5 54 L 69.5 53 Z "></path><path fill="rgb(210,210,210)" stroke="rgb(210,210,210)" stroke-width="1" opacity="1" d="M 190.5 72 L 191 80.5 L 189.5 82 L 127.5 82 L 127.5 81 L 189.5 81 L 190 80.5 L 190.5 72 Z "></path><path fill="rgb(210,210,210)" stroke="rgb(210,210,210)" stroke-width="1" opacity="1" d="M 246.5 78 L 336 78.5 L 246.5 79 L 246.5 78 Z "></path><path fill="rgb(210,210,210)" stroke="rgb(210,210,210)" stroke-width="1" opacity="1" d="M 59.5 81 L 95 81.5 L 59.5 82 L 59.5 81 Z "></path><path fill="rgb(210,210,210)" stroke="rgb(210,210,210)" stroke-width="1" opacity="1" d="M 126.5 84 L 127 90.5 L 126 90.5 L 126.5 84 Z "></path><path fill="rgb(210,210,210)" stroke="rgb(210,210,210)" stroke-width="1" opacity="1" d="M 126.5 93 L 127 95.5 L 126 95.5 L 126.5 93 Z "></path><path fill="rgb(210,210,210)" stroke="rgb(210,210,210)" stroke-width="1" opacity="1" d="M 94.5 110 L 95 122.5 L 94 122.5 L 94.5 110 Z "></path><path fill="rgb(210,210,210)" stroke="rgb(210,210,210)" stroke-width="1" opacity="1" d="M 125.5 132 L 126 138.5 L 125 138.5 L 125.5 132 Z "></path><path fill="rgb(210,210,210)" stroke="rgb(210,210,210)" stroke-width="1" opacity="1" d="M 93.5 155 L 94 162.5 L 93 162.5 L 93.5 155 Z "></path><path fill="rgb(210,210,210)" stroke="rgb(210,210,210)" stroke-width="1" opacity="1" d="M 124.5 156 L 125 161.5 L 124 161.5 L 124.5 156 Z "></path><path fill="rgb(210,210,210)" stroke="rgb(210,210,210)" stroke-width="1" opacity="1" d="M 198.5 198 L 199 202.5 L 198 202.5 L 198.5 198 Z "></path><path fill="rgb(210,210,210)" stroke="rgb(210,210,210)" stroke-width="1" opacity="1" d="M 121.5 245 L 120.5 247 L 121.5 245 Z "></path><path fill="rgb(210,210,210)" stroke="rgb(210,210,210)" stroke-width="1" opacity="1" d="M 140.5 250 L 141.5 252 L 140.5 250 Z "></path><path fill="rgb(210,210,210)" stroke="rgb(210,210,210)" stroke-width="1" opacity="1" d="M 148.5 259 L 149.5 261 L 148.5 259 Z "></path><path fill="rgb(210,210,210)" stroke="rgb(210,210,210)" stroke-width="1" opacity="1" d="M 155.5 267 L 156.5 269 L 155.5 267 Z "></path><path fill="rgb(210,210,210)" stroke="rgb(210,210,210)" stroke-width="1" opacity="1" d="M 161.5 274 L 162.5 276 L 161.5 274 Z "></path><path fill="rgb(210,210,210)" stroke="rgb(210,210,210)" stroke-width="1" opacity="1" d="M 127.5 281 L 128.5 283 L 127.5 281 Z "></path><path fill="rgb(210,210,210)" stroke="rgb(210,210,210)" stroke-width="1" opacity="1" d="M 167.5 281 L 168.5 283 L 167.5 281 Z "></path><path fill="rgb(210,210,210)" stroke="rgb(210,210,210)" stroke-width="1" opacity="1" d="M 132.5 287 L 133.5 289 L 132.5 287 Z "></path><path fill="rgb(210,210,210)" stroke="rgb(210,210,210)" stroke-width="1" opacity="1" d="M 173.5 288 L 174.5 290 L 173.5 288 Z "></path><path fill="rgb(210,210,210)" stroke="rgb(210,210,210)" stroke-width="1" opacity="1" d="M 142.5 299 L 143.5 301 L 142.5 299 Z "></path><path fill="rgb(210,210,210)" stroke="rgb(210,210,210)" stroke-width="1" opacity="1" d="M 181.5 311 L 182 316.5 L 181 316.5 L 181.5 311 Z "></path><path fill="rgb(210,210,210)" stroke="rgb(210,210,210)" stroke-width="1" opacity="1" d="M 38.5 324 L 37.5 326 L 38.5 324 Z "></path><path fill="rgb(210,210,210)" stroke="rgb(210,210,210)" stroke-width="1" opacity="1" d="M 70.5 341 L 68.5 344 L 70.5 341 Z "></path><path fill="rgb(210,210,210)" stroke="rgb(210,210,210)" stroke-width="1" opacity="1" d="M 16.5 346 L 14.5 349 L 16.5 346 Z "></path><path fill="rgb(210,210,210)" stroke="rgb(210,210,210)" stroke-width="1" opacity="1" d="M 13.5 361 L 16 361.5 L 13.5 362 L 13.5 361 Z "></path><path fill="rgb(210,210,210)" stroke="rgb(210,210,210)" stroke-width="1" opacity="1" d="M 27.5 361 L 30 361.5 L 27.5 362 L 27.5 361 Z "></path><path fill="rgb(252,252,252)" stroke="rgb(252,252,252)" stroke-width="1" opacity="1" d="M 0 0 L 370 0 L 370 369 L 0 369 L 0 0 Z M 85 2 L 68 6 L 58 12 Q 48 19 44 31 L 25 87 L 7 127 L 20 126 Q 31 123 39 117 L 51 104 L 59 84 L 60 82 L 95 82 L 95 110 L 94 111 L 94 155 L 93 156 L 93 173 L 25 173 L 23 174 L 15 182 L 8 202 L 9 203 L 90 203 L 88 222 L 83 244 L 72 274 Q 58 303 37 327 Q 22 344 4 357 L 2 360 L 14 362 L 30 362 L 44 359 Q 56 355 65 348 Q 80 332 91 312 L 103 285 L 109 263 L 111 261 L 176 340 Q 175 342 178 341 L 182 317 L 181 303 L 177 293 L 131 241 L 131 239 L 117 249 L 112 253 L 119 227 L 120 215 L 121 214 L 121 205 L 123 203 L 199 203 L 197 184 L 194 177 L 191 173 L 124 173 L 124 163 L 125 162 L 125 140 L 126 139 L 126 97 L 127 96 L 126 93 L 127 91 Q 128 84 126 82 L 190 82 L 191 81 L 190 65 L 187 58 L 181 53 L 69 53 L 79 20 L 85 6 L 85 2 Z M 215 49 L 215 321 L 216 321 L 244 321 L 251 347 L 255 354 L 306 321 L 368 321 L 368 49 L 215 49 Z "></path><path fill="rgb(252,252,252)" stroke="rgb(252,252,252)" stroke-width="1" opacity="1" d="M 336.5 78 L 337 291 L 301.5 291 L 267.5 313 L 261 291 L 246.5 291 L 246 290.5 L 246 79 L 335.5 79 L 336.5 78 Z "></path></svg>