<?xml version="1.0" standalone="no"?>
<!DOCTYPE svg PUBLIC "-//W3C//DTD SVG 20010904//EN"
 "http://www.w3.org/TR/2001/REC-SVG-20010904/DTD/svg10.dtd">
<svg version="1.0" xmlns="http://www.w3.org/2000/svg"
 width="300.000000pt" height="300.000000pt" viewBox="0 0 300.000000 300.000000"
 preserveAspectRatio="xMidYMid meet">
<metadata>
Created by potrace 1.10, written by Peter Selinger 2001-2011
</metadata>
<g transform="translate(0.000000,300.000000) scale(0.100000,-0.100000)"
fill="#000000" stroke="none">
<path d="M828 2533 c-123 -70 -136 -86 -203 -263 -32 -85 -86 -226 -120 -314
l-63 -158 27 5 c113 23 208 89 260 182 49 86 61 95 132 95 106 0 100 16 94
-259 -2 -130 -7 -245 -11 -255 -11 -30 -49 -36 -218 -36 -153 0 -165 -1 -196
-23 -35 -23 -64 -72 -73 -122 l-5 -30 225 -2 c182 -1 229 -5 240 -16 31 -31
-44 -300 -126 -452 -72 -134 -188 -278 -291 -360 -44 -35 -60 -54 -58 -69 6
-42 191 -29 295 20 142 68 312 408 373 748 12 67 24 104 35 112 27 20 107 26
281 22 l159 -3 -18 58 c-11 32 -32 71 -49 87 l-30 30 -154 0 c-143 0 -155 1
-175 21 -16 16 -19 29 -15 52 3 18 6 100 7 182 2 184 12 265 35 282 13 9 68
13 201 13 211 0 205 -3 150 90 -21 34 -42 57 -58 61 -13 4 -160 7 -325 8 -248
1 -304 4 -313 15 -10 11 -3 46 29 160 23 81 40 150 38 154 -2 5 -38 -11 -80
-35z m42 -20 c0 -5 -13 -55 -30 -113 -36 -128 -36 -141 -6 -169 24 -23 25 -23
333 -22 345 2 325 6 356 -70 l15 -36 -164 -1 c-187 -1 -213 -8 -230 -62 -7
-20 -15 -135 -19 -258 l-6 -222 25 -25 c24 -24 29 -25 168 -25 94 0 151 -5
167 -13 26 -13 57 -59 63 -92 3 -19 -4 -20 -194 -25 -191 -5 -197 -6 -222 -29
-14 -14 -28 -40 -31 -60 -34 -218 -77 -358 -171 -547 -90 -182 -181 -261 -324
-280 -81 -10 -130 -13 -130 -8 0 3 34 37 75 76 84 78 193 212 249 305 68 114
135 308 152 441 6 47 4 56 -16 77 -23 25 -23 25 -232 25 -205 0 -208 0 -208
21 0 27 27 72 54 89 15 10 68 15 191 17 200 4 230 13 240 72 11 70 9 465 -4
488 -23 44 -140 54 -196 17 -13 -8 -43 -47 -66 -86 -24 -39 -60 -83 -80 -98
-39 -28 -127 -65 -135 -57 -3 2 15 56 39 118 25 63 61 157 80 209 94 252 105
270 194 320 52 30 63 34 63 23z"/>
<path d="M1660 1420 l0 -800 90 0 89 0 11 -43 c24 -92 41 -147 45 -147 3 0 63
43 135 95 l129 96 200 -3 201 -3 0 803 0 802 -450 0 -450 0 0 -800z m871 733
c8 -78 4 -1492 -4 -1499 -5 -5 -56 -9 -115 -10 -59 -1 -143 -2 -187 -3 -89 -1
-84 1 -242 -119 -31 -23 -62 -42 -69 -42 -6 0 -20 30 -29 67 -23 90 -35 99
-123 98 l-72 -1 0 773 0 773 419 0 419 0 3 -37z"/>
<path d="M1850 2077 l-30 -8 -1 -112 c-1 -62 -2 -352 -3 -645 -1 -505 0 -534
17 -550 10 -9 28 -17 40 -17 18 0 26 -11 42 -60 11 -33 24 -66 29 -74 14 -21
52 -5 163 70 l103 69 90 0 c78 0 91 2 100 19 6 13 10 236 10 654 0 550 -2 636
-15 647 -17 14 -494 21 -545 7z m533 -658 l-3 -642 -82 2 -83 2 -124 -81 c-68
-44 -126 -78 -130 -75 -3 4 -15 39 -27 78 l-21 72 -37 0 -36 0 0 643 0 642
273 0 272 0 -2 -641z"/>
<path d="M161 1894 c0 -11 3 -14 6 -6 3 7 2 16 -1 19 -3 4 -6 -2 -5 -13z"/>
<path d="M1118 1065 l-57 -65 162 -202 c89 -110 172 -212 183 -227 l22 -26 20
70 c45 152 54 127 -114 333 -82 99 -151 181 -154 181 -3 1 -31 -29 -62 -64z
m137 -62 c33 -41 69 -85 81 -98 107 -116 127 -162 103 -236 -6 -19 -13 -40
-15 -48 -6 -20 -39 13 -147 149 -50 63 -112 140 -138 171 l-48 55 40 47 c22
25 45 44 52 41 7 -3 39 -39 72 -81z"/>
</g>
</svg>
