<?xml version="1.0" encoding="iso-8859-1"?>
<!-- Generator: Adobe Illustrator 19.0.0, SVG Export Plug-In . SVG Version: 6.00 Build 0)  -->
<svg version="1.1" id="Capa_1" xmlns="http://www.w3.org/2000/svg" xmlns:xlink="http://www.w3.org/1999/xlink" x="0px" y="0px"
	 viewBox="0 0 512 512" style="enable-background:new 0 0 512 512;" xml:space="preserve">
<linearGradient id="SVGID_1_" gradientUnits="userSpaceOnUse" x1="255.5246" y1="514.2167" x2="255.5246" y2="3.0146" gradientTransform="matrix(1.0016 0 0 -1.0016 0.0765 515.0193)">
	<stop  offset="0" style="stop-color:#2AF598"/>
	<stop  offset="1" style="stop-color:#009EFD"/>
</linearGradient>
<path style="fill:url(#SVGID_1_);" d="M408.973,142.689C368.113,101.829,313.785,79.326,256,79.326h-31.717l50.907-51.032L246.826,0
	L147.68,99.389l97.853,99.488l28.563-28.093l-50.551-51.396H256c97.199,0,176.275,79.076,176.275,176.275
	S353.199,471.938,256,471.938S79.725,392.861,79.725,295.659v-20.031l-40.062,0.004v20.031c0,57.786,22.503,112.113,63.364,152.973
	S198.215,512,256,512s112.113-22.503,152.973-63.364s63.364-95.188,63.364-152.973S449.834,183.55,408.973,142.689z"/>
<g>
</g>
<g>
</g>
<g>
</g>
<g>
</g>
<g>
</g>
<g>
</g>
<g>
</g>
<g>
</g>
<g>
</g>
<g>
</g>
<g>
</g>
<g>
</g>
<g>
</g>
<g>
</g>
<g>
</g>
</svg>
