<svg height="512pt" viewBox="0 0 512 512" width="512pt" xmlns="http://www.w3.org/2000/svg" xmlns:xlink="http://www.w3.org/1999/xlink"><linearGradient id="a" gradientUnits="userSpaceOnUse" x1="256" x2="256" y1="0" y2="512"><stop offset="0" stop-color="#2af598"/><stop offset="1" stop-color="#009efd"/></linearGradient><path d="m452 0h-392c-33.085938 0-60 26.914062-60 60v312c0 33.085938 26.914062 60 60 60h135v-40h-135c-11.027344 0-20-8.972656-20-20v-212h432v212c0 11.027344-8.972656 20-20 20h-136v40h136c33.085938 0 60-26.914062 60-60v-312c0-33.085938-26.914062-60-60-60zm-412 120v-60c0-11.027344 8.972656-20 20-20h392c11.027344 0 20 8.972656 20 20v60zm70-40c0 11.046875-8.953125 20-20 20s-20-8.953125-20-20 8.953125-20 20-20 20 8.953125 20 20zm70 0c0 11.046875-8.953125 20-20 20s-20-8.953125-20-20 8.953125-20 20-20 20 8.953125 20 20zm134 255.285156-39-39v155.714844c0 33.085938-26.914062 60-60 60h-115v-40h115c11.027344 0 20-8.972656 20-20v-155.714844l-39 39-28.285156-28.285156 87.285156-87.285156 87.285156 87.285156zm0 0" fill="url(#a)"/></svg>