<svg id="Layer_1" enable-background="new 0 0 256 256" height="512" viewBox="0 0 256 256" width="512" xmlns="http://www.w3.org/2000/svg"><g><g><path d="m170.892 187.101-16.328-16.328c2.996-2.318 5.891-4.825 8.638-7.572s5.254-5.642 7.572-8.637l16.328 16.328z" fill="#e0ebfc"/></g><g><path d="m170.892 189.101c-.53 0-1.039-.211-1.414-.586l-16.328-16.328c-.406-.406-.618-.967-.582-1.541.036-.573.317-1.103.772-1.455 3.06-2.368 5.902-4.859 8.447-7.404 2.543-2.543 5.034-5.385 7.404-8.448.352-.454.882-.735 1.455-.772.592-.029 1.135.176 1.541.582l16.327 16.328c.781.781.781 2.047 0 2.828l-16.209 16.209c-.374.376-.883.587-1.413.587zm-13.327-18.155 13.326 13.326 13.381-13.381-13.325-13.326c-2.047 2.524-4.17 4.889-6.332 7.05-2.163 2.164-4.527 4.287-7.05 6.331z" fill="#3762cc"/></g><g><path d="m163.201 163.201c35.346-35.346 35.216-92.986-.287-128.489-35.503-35.503-93.143-35.633-128.489-.287-35.346 35.346-35.216 92.985.288 128.489 35.503 35.504 93.143 35.633 128.488.287zm-64.251 1.357c-17.598-.039-34.132-6.903-46.555-19.326-12.42-12.421-19.284-28.95-19.327-46.543-.043-17.607 6.749-34.119 19.126-46.495 25.595-25.595 67.332-25.504 93.037.201 12.42 12.42 19.283 28.948 19.326 46.541.043 17.606-6.749 34.119-19.126 46.496-12.372 12.373-28.879 19.165-46.481 19.126z" fill="#6bdddd"/></g><g><path d="m99.221 191.625c-23.848 0-47.728-9.102-65.922-27.297-36.284-36.283-36.413-95.192-.288-131.317 36.125-36.125 95.035-35.996 131.317.288 17.548 17.547 27.242 40.885 27.298 65.713.056 24.832-9.537 48.13-27.011 65.604-18.01 18.009-41.686 27.009-65.394 27.009zm-.816-181.626c-22.688 0-45.334 8.608-62.566 25.84-34.566 34.565-34.437 90.937.288 125.661 17.413 17.413 40.273 26.125 63.094 26.127 22.688.001 45.334-8.608 62.566-25.84 16.716-16.716 25.893-39.007 25.839-62.767-.053-23.763-9.331-46.1-26.126-62.894-17.413-17.412-40.274-26.127-63.095-26.127z" fill="#3762cc"/></g><g><path d="m98.95 164.558c-17.598-.039-34.132-6.903-46.555-19.326-12.42-12.421-19.284-28.95-19.327-46.543-.043-17.607 6.749-34.119 19.126-46.495 25.595-25.595 67.332-25.504 93.037.201 12.42 12.42 19.283 28.948 19.326 46.541.043 17.606-6.749 34.119-19.126 46.496-12.372 12.373-28.879 19.165-46.481 19.126z" fill="#e0ebfc"/></g><g><path d="m242.95 242.95c6.733-6.733 6.733-17.649 0-24.382l-48.149-48.149c-1.996-1.996-5.232-1.996-7.228 0l-17.154 17.154c-1.996 1.996-1.996 5.232 0 7.228l48.149 48.149c6.733 6.733 17.649 6.733 24.382 0z" fill="#4671c6"/></g><g><path d="m230.759 249.991c-4.928 0-9.854-1.875-13.605-5.626l-48.148-48.149c-1.343-1.343-2.083-3.128-2.083-5.028s.739-3.686 2.083-5.028l17.154-17.154c2.773-2.772 7.283-2.772 10.057 0l48.148 48.149c3.635 3.634 5.636 8.466 5.636 13.605s-2.001 9.971-5.636 13.605c-3.752 3.75-8.678 5.626-13.606 5.626zm-39.571-79.067c-.797 0-1.594.303-2.2.91l-17.154 17.154c-.588.588-.911 1.369-.911 2.2s.323 1.612.911 2.199l48.148 48.149c5.942 5.943 15.612 5.942 21.555 0 2.879-2.879 4.464-6.706 4.464-10.777s-1.585-7.898-4.464-10.777l-48.148-48.149c-.608-.606-1.405-.909-2.201-.909z" fill="#3762cc"/></g><g><path d="m99.104 166.558c-.054 0-.104 0-.158 0-18.13-.04-35.164-7.112-47.964-19.912-12.797-12.797-19.869-29.827-19.913-47.952-.045-18.144 6.955-35.16 19.711-47.914 12.722-12.722 29.673-19.723 47.744-19.723h.151c18.125.04 35.161 7.116 47.97 19.925 12.796 12.795 19.868 29.824 19.912 47.95.043 18.143-6.957 35.16-19.712 47.915-12.714 12.714-29.664 19.71-47.741 19.711zm-.58-131.501c-17.004 0-32.949 6.584-44.916 18.551-11.997 11.996-18.582 28.004-18.54 45.076.042 17.061 6.697 33.089 18.741 45.134 12.047 12.046 28.08 18.702 45.146 18.74h.147c17.011 0 32.955-6.58 44.915-18.539 11.996-11.998 18.581-28.006 18.54-45.077-.042-17.061-6.697-33.088-18.74-45.131-12.056-12.056-28.09-18.716-45.15-18.753-.047-.001-.096-.001-.143-.001z" fill="#3762cc"/></g><g><path d="m64.27 132.412c-1.527-1.527-2.957-3.163-4.249-4.862 0 0-.001-.001-.001-.001-6.255-8.215-9.574-18.071-9.6-28.491v-.126c0-6.069 1.118-11.949 3.324-17.477.819-2.052-.181-4.379-2.232-5.198-2.051-.818-4.38.18-5.197 2.232-2.584 6.476-3.895 13.354-3.895 20.442v.136c.03 12.188 3.915 23.71 11.233 33.324.001.001.001.001.001.002 1.51 1.984 3.179 3.893 4.96 5.674.78.781 1.805 1.172 2.828 1.172s2.048-.391 2.828-1.172c1.562-1.56 1.562-4.093 0-5.655z" fill="#a4c9ff"/></g><g><path d="m54.234 71.437c.723.548 1.571.813 2.413.813 1.209 0 2.404-.546 3.19-1.584 1.292-1.704 2.718-3.339 4.239-4.86 1.563-1.562 1.563-4.095.001-5.657-1.563-1.563-4.095-1.562-5.657 0-1.779 1.779-3.447 3.691-4.958 5.685-1.334 1.76-.988 4.269.772 5.603z" fill="#a4c9ff"/></g></g></svg>